<svg width="82" height="82" viewBox="0 0 82 82" fill="none" xmlns="http://www.w3.org/2000/svg">
<path d="M80.4223 76.0004L60.8637 56.4457C66.5326 49.6399 69.3593 40.9105 68.756 32.0736C68.1527 23.2366 64.1657 14.9725 57.6244 9.00029C51.0831 3.02809 42.4912 -0.192355 33.636 0.0088946C24.7807 0.210144 16.344 3.81759 10.0808 10.0808C3.81759 16.344 0.210144 24.7807 0.0088946 33.636C-0.192355 42.4912 3.02809 51.0831 9.00029 57.6244C14.9725 64.1657 23.2366 68.1527 32.0736 68.756C40.9105 69.3593 49.6399 66.5326 56.4457 60.8637L76.0004 80.4223C76.2907 80.7126 76.6354 80.9429 77.0148 81.1001C77.3941 81.2572 77.8007 81.3381 78.2113 81.3381C78.622 81.3381 79.0285 81.2572 79.4079 81.1001C79.7872 80.9429 80.1319 80.7126 80.4223 80.4223C80.7126 80.1319 80.9429 79.7872 81.1001 79.4079C81.2572 79.0285 81.3381 78.622 81.3381 78.2113C81.3381 77.8007 81.2572 77.3941 81.1001 77.0148C80.9429 76.6354 80.7126 76.2907 80.4223 76.0004ZM6.33634 34.4613C6.33634 28.8987 7.98584 23.4611 11.0763 18.8359C14.1667 14.2108 18.5592 10.6059 23.6984 8.47723C28.8375 6.34851 34.4925 5.79155 39.9483 6.87675C45.404 7.96196 50.4154 10.6406 54.3487 14.574C58.2821 18.5073 60.9607 23.5187 62.0459 28.9744C63.1311 34.4301 62.5742 40.0851 60.4455 45.2243C58.3167 50.3635 54.7119 54.756 50.0868 57.8464C45.4616 60.9368 40.0239 62.5863 34.4613 62.5863C27.0047 62.5781 19.8558 59.6123 14.5831 54.3396C9.31043 49.0669 6.34461 41.918 6.33634 34.4613Z" fill="#2669F6"/>
</svg>
