<svg width="150" height="150" viewBox="0 0 164 164" fill="none" xmlns="http://www.w3.org/2000/svg">
<path d="M117.672 58.8281C118.253 59.4086 118.714 60.0979 119.028 60.8566C119.343 61.6154 119.505 62.4287 119.505 63.25C119.505 64.0713 119.343 64.8846 119.028 65.6434C118.714 66.4021 118.253 67.0914 117.672 67.6719L73.9219 111.422C73.3414 112.003 72.6521 112.464 71.8934 112.779C71.1346 113.093 70.3213 113.255 69.5 113.255C68.6786 113.255 67.8653 113.093 67.1066 112.779C66.3479 112.464 65.6586 112.003 65.0781 111.422L46.3281 92.6719C45.1553 91.4991 44.4965 89.9085 44.4965 88.25C44.4965 86.5915 45.1553 85.0009 46.3281 83.8281C47.5009 82.6554 49.0914 81.9965 50.75 81.9965C52.4085 81.9965 53.9991 82.6554 55.1719 83.8281L69.5 98.1641L108.828 58.8281C109.409 58.247 110.098 57.786 110.857 57.4715C111.615 57.157 112.429 56.9951 113.25 56.9951C114.071 56.9951 114.885 57.157 115.643 57.4715C116.402 57.786 117.091 58.247 117.672 58.8281ZM163.25 82C163.25 98.0697 158.485 113.779 149.557 127.14C140.629 140.502 127.939 150.916 113.093 157.065C98.2465 163.215 81.9098 164.824 66.1489 161.689C50.3879 158.554 35.9106 150.815 24.5475 139.452C13.1845 128.089 5.44622 113.612 2.31117 97.8511C-0.823878 82.0901 0.785143 65.7535 6.93476 50.907C13.0844 36.0605 23.4984 23.371 36.8599 14.4431C50.2214 5.51523 65.9302 0.75 82 0.75C103.542 0.772749 124.195 9.3403 139.427 24.5727C154.66 39.8051 163.227 60.4581 163.25 82ZM150.75 82C150.75 68.4025 146.718 55.1104 139.164 43.8045C131.609 32.4987 120.872 23.6868 108.309 18.4833C95.747 13.2798 81.9237 11.9183 68.5875 14.571C55.2513 17.2237 43.0012 23.7715 33.3864 33.3864C23.7715 43.0013 17.2237 55.2513 14.571 68.5875C11.9183 81.9237 13.2797 95.7471 18.4833 108.309C23.6868 120.872 32.4986 131.609 43.8045 139.164C55.1104 146.718 68.4025 150.75 82 150.75C100.227 150.729 117.702 143.479 130.591 130.591C143.479 117.702 150.729 100.227 150.75 82Z" fill="#2669F6"/>
</svg>
