<svg width="100" height="100" viewBox="0 0 100 100" fill="none" xmlns="http://www.w3.org/2000/svg">
<path d="M50 0C40.1109 0 30.444 2.93245 22.2215 8.42652C13.9991 13.9206 7.59043 21.7295 3.80605 30.8658C0.0216641 40.0021 -0.968502 50.0555 0.960758 59.7545C2.89002 69.4536 7.65206 78.3627 14.6447 85.3553C21.6373 92.3479 30.5465 97.11 40.2455 99.0392C49.9445 100.968 59.9979 99.9783 69.1342 96.194C78.2705 92.4096 86.0794 86.0009 91.5735 77.7785C97.0676 69.556 100 59.8891 100 50C99.986 36.7435 94.7137 24.0339 85.3399 14.6601C75.9661 5.28633 63.2565 0.0139991 50 0ZM50 92.3077C41.6323 92.3077 33.4526 89.8264 26.4951 85.1775C19.5377 80.5287 14.115 73.9212 10.9128 66.1904C7.71064 58.4597 6.87281 49.9531 8.50526 41.7462C10.1377 33.5393 14.1671 26.0008 20.084 20.0839C26.0008 14.1671 33.5393 10.1377 41.7462 8.50524C49.9531 6.87279 58.4597 7.71062 66.1905 10.9128C73.9212 14.115 80.5287 19.5376 85.1776 26.4951C89.8264 33.4526 92.3077 41.6323 92.3077 50C92.295 61.2168 87.8335 71.9705 79.902 79.902C71.9705 87.8335 61.2168 92.2949 50 92.3077ZM80.7692 50C80.7692 51.0201 80.364 51.9983 79.6427 52.7196C78.9214 53.4409 77.9431 53.8461 76.9231 53.8461H50C48.9799 53.8461 48.0017 53.4409 47.2804 52.7196C46.5591 51.9983 46.1539 51.0201 46.1539 50V23.0769C46.1539 22.0569 46.5591 21.0786 47.2804 20.3573C48.0017 19.636 48.9799 19.2308 50 19.2308C51.0201 19.2308 51.9984 19.636 52.7197 20.3573C53.4409 21.0786 53.8462 22.0569 53.8462 23.0769V46.1538H76.9231C77.9431 46.1538 78.9214 46.5591 79.6427 47.2803C80.364 48.0016 80.7692 48.9799 80.7692 50Z" fill="#2669F6"/>
</svg>
